<svg class="bones-icon" data-name="Layer 1" xmlns="http://www.w3.org/2000/svg" viewBox="0 0 45 23.85">
    <defs>
    <style>.cls-1 { fill: grey;}</style>
    </defs>
              <title>Butchershop Logo</title>
              <g id="Bones_Charcoal" data-name="Bones Charcoal">
                <g id="Bones_Black" data-name="Bones Black">
                  <path class="cls-1" d="M42.75,3.34A4.4,4.4,0,0,1,41.39,1.8C40.88.69,40.36.08,39.51,0s-1.76.51-2.83,2.23a12.07,12.07,0,0,1-4.63,3.88c-2.35,1.22-4.36,2.25-6.73,3.44-.64.32-2.08,1.1-2.08,1.1l4.31,2.13s6.05-2.52,9.08-3.5S40.9,8.6,43,8.16a2.27,2.27,0,0,0,1.75-3.28c-.42-.82-1.22-1-2-1.54"></path>
                  <path class="cls-1" d="M17.26,13.51S11.34,16,8.81,16.15c-2.8.23-5.38-1-7.31.4a2,2,0,0,0,.21,3.26c.78.45,2,1,2.38,1.82C4.87,23.46,6.16,24.3,8,23.5c1.09-.47,1.51-2,3-2.78s2.59-1.41,4-2.11c2.29-1.13,6.54-3,6.54-3Z"></path>
                  <path class="cls-1" d="M41.28,16.33c-1.54-.26-4.27.5-5.6.35a12.25,12.25,0,0,1-4.76-1.45C29.61,14.6,28.31,14,27,13.3,23,11.19,19,9,14.87,7c-2.7-1.33-5.4-2.74-6.78-5.43C7.2-.2,5.38-.5,4.29.87A13.84,13.84,0,0,1,3.45,2a4.32,4.32,0,0,1-.72.65C1.28,3.62.53,3.8.11,4.88A2.22,2.22,0,0,0,1.46,7.52,5.46,5.46,0,0,0,3.18,8a27.77,27.77,0,0,1,8,2c6,2.71,14.81,6.87,18.57,8.67a20.63,20.63,0,0,1,6.12,4c1.41,1.4,3.69,1.73,4.31,0a3.27,3.27,0,0,1,1.4-1.86c1.15-.57,1.8-1,1.78-2.14a2.35,2.35,0,0,0-2-2.32"></path>
                </g>
              </g>
            </svg>