<?xml version="1.0" encoding="utf-8"?>
<!-- Generator: Adobe Illustrator 13.0.0, SVG Export Plug-In . SVG Version: 6.00 Build 14948)  -->
<!DOCTYPE svg PUBLIC "-//W3C//DTD SVG 1.1//EN" "http://www.w3.org/Graphics/SVG/1.1/DTD/svg11.dtd">
<svg version="1.1" xmlns="http://www.w3.org/2000/svg" xmlns:xlink="http://www.w3.org/1999/xlink" x="0px" y="0px"
	 width="161.333px" height="44.667px" viewBox="0 0 161.333 44.667" enable-background="new 0 0 161.333 44.667"
	 xml:space="preserve">
<g id="Layer_1">
	<path fill="none" stroke="grey" stroke-width="3" d="M52.333,18L47,17.667c0,0-3,0.666-2.667,2.333l0.042,7.375
		c0,0,0,1.5,2.5,1.375L52,28.625"/>
	<path fill="none" stroke="grey" stroke-width="3" d="M62,28.625c0,0-4.25,1.125-4.125-3V21c0,0-0.75-2.625,3.875-2.625h1.875
		c0,0,2.25-0.625,2.25,4.625C65.875,23,67.25,28.875,62,28.625z"/>
	<path fill="none" stroke="grey" stroke-width="3" d="M73,30.25l-0.125-12l4.375,0.148c0,0,2.625-0.741,2.625,3.555L80,29.657"/>
	<polyline fill="none" stroke="grey" stroke-width="3" points="86.25,17.856 90.625,27.25 95.375,17.75 	"/>
	<path fill="none" stroke="grey" stroke-width="3" d="M109.25,18.5H104c0,0-2.875,0-2.875,2.875v5.25
		c0,0,0.625,2.375,3.125,2.375l5,0.125"/>
	<line fill="none" stroke="grey" stroke-width="3" x1="101" y1="23.375" x2="109.125" y2="23.5"/>
	<path fill="none" stroke="grey" stroke-width="3" d="M115.75,29.625V18h5.375c0,0,2.125,1.125,2.125,2.75c0,0-1,2.875-2.75,3
		h-4.125"/>
	<line fill="none" stroke="grey" stroke-width="3" x1="119.875" y1="23.75" x2="123.125" y2="29.375"/>
	<path fill="none" stroke="grey" stroke-width="3" d="M137.75,18.5l-5.375-0.125c0,0-2.75,0.125-2.625,2.875
		c0,0,0.375,2.75,2.75,2.75c0,0,4.75-1.125,4.875,2.125c0,0,0.25,2.75-3.5,2.875L129,28.75"/>
	<path fill="none" stroke="grey" stroke-width="3" d="M152.278,18.522l-5.25-0.028c0,0-2.875-0.016-2.891,2.859l-0.027,5.25
		c0,0,0.612,2.378,3.112,2.392l4.999,0.152"/>
	<line fill="none" stroke="grey" stroke-width="3" x1="144.002" y1="23.353" x2="152.127" y2="23.521"/>
</g>
<g id="Layer_2">
	<polygon stroke="grey" points="18.625,24.75 16.375,32.5 23,27.625 29,32.5 27.375,24.875 33.375,20 25.625,19.375 23,12.375 
		19.875,19.5 12.25,19.5 	"/>
	<ellipse fill="none" stroke="grey" stroke-width="2" cx="22.938" cy="23.438" rx="14.813" ry="15.313"/>
</g>
</svg>
