<?xml version="1.0" encoding="UTF-8"?>
<svg width="138px" height="38px" viewBox="0 0 138 38" version="1.1" xmlns="http://www.w3.org/2000/svg" xmlns:xlink="http://www.w3.org/1999/xlink">
    <!-- Generator: Sketch 42 (36781) - http://www.bohemiancoding.com/sketch -->
    <title>Steele Logo_offwhite</title>
    <defs>
    <style type="text/css">
	.st0{fill:grey;}
</style></defs>
    <g id="Symbols" stroke="none" stroke-width="1" fill="none" fill-rule="evenodd">
        <g id="Nav-Dropdown-Charcoal" transform="translate(-60.000000, -19.000000)" fill="#F2F2F2">
            <g id="Steele-Logo_offwhite" transform="translate(60.000000, 19.000000)">
                <g id="Page-1">
                    <g id="Group-3" transform="translate(0.000000, 0.149444)">
                        <path class="st0" d="M30.2195919,0.316257698 L3.25633691,0.316257698 C1.45816913,0.316257698 -9.26174498e-05,1.78275084 -9.26174498e-05,3.59153437 L-9.26174498e-05,34.4465687 C-9.26174498e-05,36.2553522 1.45816913,37.7218454 3.25633691,37.7218454 L30.2195919,37.7218454 C32.0182228,37.7218454 33.4760215,36.2553522 33.4760215,34.4465687 L33.4760215,3.59153437 C33.4760215,1.78275084 32.0182228,0.316257698 30.2195919,0.316257698 M30.2195919,1.53080648 C31.3495248,1.53080648 32.2682899,2.4552234 32.2682899,3.59153437 L32.2682899,34.4465687 C32.2682899,35.5828796 31.3495248,36.5072966 30.2195919,36.5072966 L3.25633691,36.5072966 C2.12686711,36.5072966 1.20763893,35.5828796 1.20763893,34.4465687 L1.20763893,3.59153437 C1.20763893,2.4552234 2.12686711,1.53080648 3.25633691,1.53080648 L30.2195919,1.53080648" id="Fill-1"></path>
                    </g>
                    <path class="st0" d="M22.275006,32.2846905 L4.99953624,32.2846905 L16.5253148,19.4113117 L11.3044691,19.4113117 C7.77018725,19.4113117 4.90552953,16.5295525 4.90552953,12.9748551 C4.90552953,9.419692 7.77018725,6.53793285 11.3044691,6.53793285 L28.0418315,6.53793285 L16.5253148,19.4113117 L22.275006,19.4113117 C25.8092879,19.4113117 28.6744087,22.2930708 28.6744087,25.8482339 C28.6744087,29.4029313 25.8092879,32.2846905 22.275006,32.2846905" id="Fill-4"></path>
                    <path class="st0" d="M48.5626631,14.1820924 C47.7531866,13.3680466 47.3850322,12.591257 47.3850322,11.6659087 C47.3850322,9.66805046 49.3721396,8.18758628 51.9107839,8.18758628 C55.3329987,8.18758628 57.9818577,10.4406488 58.2393342,14.181161 L59.7610389,14.181161 L59.7610389,8.66912134 C57.2812067,7.29995976 54.5665893,6.55996052 52.1011128,6.55996052 C47.0238242,6.55996052 43.5807705,9.1129346 43.5807705,12.9242334 C43.5807705,14.5891152 44.2133477,15.8101838 45.2437168,16.8463691 C48.3343611,19.954459 53.2685557,21.6561313 55.6599383,24.061478 C56.7273544,25.1344537 56.9866832,26.0965924 56.9866832,26.7625451 C56.9866832,29.0193332 54.5221329,30.9627044 51.4685356,30.9627044 C47.384106,30.9627044 45.3983879,28.3952936 44.6625423,24.6547814 L43.1468577,24.6547814 L43.1468577,30.9063546 C44.8825087,31.8684933 48.9271128,32.682539 51.6130188,32.682539 C56.9848309,32.682539 60.7946497,29.7965886 60.7946497,25.6895695 C60.7946497,23.876129 60.0875154,22.4333866 58.7626228,21.1014811 C56.0030859,18.3263675 50.5127235,16.1431602 48.5626631,14.1820924" id="Fill-6"></path>
                    <path class="st0" d="M69.9277027,28.1685437 L69.9277027,17.4229537 L74.886904,17.4229537 L74.886904,15.6775056 L69.9277027,15.6775056 L69.9277027,12.6849095 L68.6102195,12.6849095 C67.4696356,14.1812075 66.2081859,15.6989278 63.9765685,16.4393928 L63.9765685,17.4229537 L66.7041523,17.4229537 L66.7041523,29.3896123 C66.7041523,31.6464004 67.8104678,32.6457952 70.2388973,32.6457952 C71.7842195,32.6457952 73.3994678,32.2755627 75.1351188,32.0166329 L75.1351188,30.203658 C74.3914007,30.3144949 73.2485013,30.3885414 72.5131188,30.3885414 C70.3421658,30.3885414 69.9277027,29.8706816 69.9277027,28.1685437" id="Fill-8"></path>
                    <path class="st0" d="M84.5388463,16.5574946 C86.5625376,16.5574946 87.8869671,17.9215335 88.1810275,20.6645136 L80.5280477,20.6645136 C80.8596181,18.1711493 82.4049403,16.5574946 84.5388463,16.5574946 M86.6727523,29.6455617 C83.2510007,29.6455617 80.1233094,26.8988559 80.3076181,21.9116615 L92.0445644,21.9116615 C92.0445644,19.4178315 89.9838262,15.1422286 85.237645,15.1422286 C80.896202,15.1422286 77.5480812,19.0098772 77.5480812,24.079035 C77.5480812,29.0373559 80.7489403,32.6358292 85.2010611,32.6358292 C87.9971819,32.6358292 90.4626584,31.1977438 92.0445644,28.6075136 L91.2721349,27.907099 C89.8736114,29.1281676 88.4019201,29.6455617 86.6727523,29.6455617" id="Fill-10"></path>
                    <path class="st0" d="M102.162974,16.5574946 C104.186666,16.5574946 105.511095,17.9215335 105.805156,20.6645136 L98.1521758,20.6645136 C98.4837463,18.1711493 100.029068,16.5574946 102.162974,16.5574946 M104.296881,29.6455617 C100.875129,29.6455617 97.7474376,26.8988559 97.9317463,21.9116615 L109.668693,21.9116615 C109.668693,19.4178315 107.607954,15.1422286 102.861773,15.1422286 C98.5203302,15.1422286 95.1722094,19.0098772 95.1722094,24.079035 C95.1722094,29.0373559 98.3730685,32.6358292 102.825189,32.6358292 C105.62131,32.6358292 108.086787,31.1977438 109.668693,28.6075136 L108.896263,27.907099 C107.49774,29.1281676 106.026048,29.6455617 104.296881,29.6455617" id="Fill-12"></path>
                    <path class="st0" d="M117.785964,27.8354742 L117.785964,6.45047416 L116.953796,6.45047416 L112.330796,8.22479581 L112.330796,9.07609764 L114.810165,10.4820496 L114.810165,28.094404 C114.810165,29.6857051 114.066447,30.7954711 112.330796,30.9067737 L112.330796,32.1357592 L120.265796,32.1357592 L120.265796,30.9067737 C118.529682,30.7954711 117.785964,29.6857051 117.785964,27.8354742" id="Fill-14"></path>
                    <path class="st0" d="M130.126128,16.5574946 C132.149819,16.5574946 133.474248,17.9215335 133.768309,20.6645136 L126.115329,20.6645136 C126.446899,18.1711493 127.992221,16.5574946 130.126128,16.5574946 M132.260034,29.6464931 C128.838282,29.6464931 125.710591,26.8988559 125.894899,21.9116615 L137.631846,21.9116615 C137.631846,19.4178315 135.571107,15.1422286 130.824926,15.1422286 C126.483483,15.1422286 123.135362,19.0098772 123.135362,24.079035 C123.135362,29.0373559 126.336221,32.6358292 130.788342,32.6358292 C133.584463,32.6358292 136.04994,31.1977438 137.631846,28.6075136 L136.859416,27.8875396 C135.460893,29.1086082 133.989201,29.6464931 132.260034,29.6464931" id="Fill-16"></path>
                </g>
            </g>
        </g>
    </g>
</svg>