<svg version="1.1" xmlns="http://www.w3.org/2000/svg" xmlns:xlink="http://www.w3.org/1999/xlink" x="0px" y="0px" viewBox="0 0 910 213" style="enable-background:new 0 0 910 213;" xml:space="preserve"><path d="M0,128.7V0h30v128.1c0,28.5,20.4,50.1,47.5,50.1c27.3,0,47.5-21.5,47.5-50.1V0h35v128.7c0,48.3-34.4,84.4-80.1,84.4C34.4,213,0,176.9,0,128.7z"></path><path d="M235,85v92.5h37.5V210H205V85h-27.5V55h25V0H235v55h37.5v30H235z"></path><path d="M520,106.9v100.6h-32.5v-90.4c0-21.2-12.7-35.2-32.6-35.2c-20.8,0-34.9,14.3-34.9,35.8v89.8h-30v-90.4c0-21.2-12.7-35.2-32.6-35.2c-20.8,0-34.9,14.3-34.9,35.8v89.8H290v-155h32.5v20.1c10.6-15.5,26-23.7,45.1-23.7c22.5,0,39.7,11.2,47.9,29.8c10.8-19.1,28.3-29.8,50.8-29.8C498.6,48.9,520,72,520,106.9z"></path><path d="M531.9,130.9c0-46.1,33.3-81,77.6-81c44.1,0,77.6,34.9,77.6,81s-33.6,81-77.6,81C565.2,211.9,531.9,177,531.9,130.9z M654.2,130.9c0-27.3-19-48.3-44.6-48.3s-44.9,20.9-44.9,48.3c0,27.3,19.3,48.3,44.9,48.3C635.2,179.1,654.2,158.2,654.2,130.9z"></path><path d="M699.4,162.5h32c0,10.8,8.4,19.5,19.4,19.5c10.1,0,18.2-6.9,18.2-16.2c0-11.4-10.7-17.4-25.3-21.6c-21-5.7-42.4-17.4-42.4-47c0-29.4,22.5-46.1,48.5-46.1c28.3,0,49.1,20.7,49.1,46.4h-32c0-9.6-7.3-17.4-17.4-17.4c-9,0-16.3,6.6-16.3,15c0,10.8,10.1,17.1,25.8,21.3c23.3,6.3,41.8,19.2,41.8,46.4c0,30.3-22.4,48.2-50.5,48.2C720.7,211,699.4,189.5,699.4,162.5z"></path><path d="M872.5,85v92.5H910V210h-70V85h-25V55h25V0h32.5v55H910v30H872.5z"></path></svg>