<svg id="arcline-logo-small" data-name="arcline-logo-small" xmlns="http://www.w3.org/2000/svg" viewBox="0 0 681.6 81.86" width="166px" height="20px" style="width: 166px; height: 20px;"><defs><style>.logo-1 {
                  fill: grey;
                }</style></defs><title>Arcline Investment Management</title><path class="logo-1" d="M173.28,42.81c4.39-4.21,6.61-10,6.61-17.32a27,27,0,0,0-1.74-9.85,22,22,0,0,0-5.36-8,24,24,0,0,0-9.32-5.32A41.63,41.63,0,0,0,150.67.52h-31V81.44h11.52V50.73H146.4l23.09,30.71H184L159.83,49.65A27.79,27.79,0,0,0,173.28,42.81ZM131.19,11.19h19.14c5.75,0,10.22,1.24,13.28,3.69S168,20.68,168,25.44a15.62,15.62,0,0,1-1.05,5.86,12.52,12.52,0,0,1-3.18,4.5,14.79,14.79,0,0,1-5.9,3.08,33.11,33.11,0,0,1-9.41,1.18H131.19Z"></path><path class="logo-1" d="M242.3,19.53a27.64,27.64,0,0,1,9.87-6.32,37.44,37.44,0,0,1,13.56-2.34,33.48,33.48,0,0,1,13.7,2.92,34,34,0,0,1,11.51,8.53l1.5,1.69,9.06-6.76-1.76-2A45,45,0,0,0,289.4,6.52a42.92,42.92,0,0,0-11.6-5A47.93,47.93,0,0,0,265.73,0a53.34,53.34,0,0,0-15.14,2.06,40.15,40.15,0,0,0-12.27,5.88,39.07,39.07,0,0,0-8.89,8.94,38.13,38.13,0,0,0-5.5,11.43,47,47,0,0,0-1.79,13,43.59,43.59,0,0,0,2.26,14.23A35.8,35.8,0,0,0,230.76,67a40.09,40.09,0,0,0,9.52,8.18,42.83,42.83,0,0,0,11.94,5,54.53,54.53,0,0,0,13.51,1.65c13.73,0,25.17-5.1,34-15.15l1.76-2L292.45,58,291,59.63C284.06,67.27,275.81,71,265.73,71a37.92,37.92,0,0,1-12.6-2,30.31,30.31,0,0,1-10-5.77,26,26,0,0,1-6.6-9.29,31.43,31.43,0,0,1-2.44-12.55,33.86,33.86,0,0,1,2.16-12.2A28.12,28.12,0,0,1,242.3,19.53Z"></path><polygon class="logo-1" points="355.65 0.52 344.13 0.52 344.13 81.44 399.42 81.44 399.42 70.77 355.65 70.77 355.65 0.52"></polygon><rect class="logo-1" x="441.98" y="0.52" width="11.58" height="80.91"></rect><polygon class="logo-1" points="564.34 61.94 514.96 0.52 504.83 0.52 504.83 81.44 516.36 81.44 516.36 20.4 565.5 81.44 575.86 81.44 575.86 0.52 564.34 0.52 564.34 61.94"></polygon><polygon class="logo-1" points="626.83 35.78 626.83 81.44 681.6 81.44 681.6 70.77 638.35 70.77 638.35 46.44 674.31 46.44 674.31 35.78 626.83 35.78"></polygon><rect class="logo-1" x="626.83" y="0.52" width="54.77" height="10.66"></rect><path class="logo-1" d="M78.7,81.44,44.33.52H34.06L0,81.44H12.41l4.1-9.91a46.91,46.91,0,0,1,45.55-.06l4.16,10ZM22.83,56.23l1.43-3.47.55-1.32.32-.77,14.08-34.1,14.22,34.1.29.69.57,1.38,1.42,3.44a53.18,53.18,0,0,0-32.88,0Z"></path></svg>