<svg xmlns="http://www.w3.org/2000/svg" viewBox="0 0 63.6 17.12">
	<defs>
		<style>
			.cls-1{fill:grey;}
		</style>
	</defs>
	<title>
		Asset 2
	</title>
	<g id="Layer_2" data-name="Layer 2">
		<g id="Layer_1-2" data-name="Layer 1">
			<path class="cls-1" d="M63.6,0l-.85,2h-.14L62.11.85c-.2-.48-.47-.71-.86-.71V0ZM61.27,11.67c-.65-.09-1.08-.33-1.08-1.34V4.86h1.38l.43-1H60.19V2.32c0-1.21,0-2.18.52-2.18V0c-1.21,0-3.05.14-3.05,3.32v.52h-1v1h1v5.47c0,1-.24,1.22-.92,1.34v.13h4.55ZM43.49,3.84l-1,2.4h-.11L42,5.44c-.42-1-.81-1.35-1.51-1.46V3.84ZM41.38,8.77,40,12h-.11L37.16,5.44c-.43-1-.81-1.35-1.51-1.46V3.84h3.76ZM34.5,3.84H30.74V4c.7.11,1.08.49,1.51,1.46L35,12h.11l1.35-3.2ZM28.79,7c-.05-1.86-.2-3.13-1.06-3.21h0V3.66h0c2.19.1,3.4,1.72,3.49,3.82h-4.4V7.34l2-.29m-1.46,3.11a2.44,2.44,0,0,1-1.18-1.59c-.37-1.48-.07-3.76.68-4.53a.82.82,0,0,1,.34-.23V3.66A4,4,0,0,0,23.62,6.6c-.8,3.66,1.89,4.93,1.89,4.93a3.87,3.87,0,0,0,5.6-2.3L31,9.18a3,3,0,0,1-3.68,1M8.92,7.65h0a3.86,3.86,0,0,0-3.69-4H4.55v.12a1.26,1.26,0,0,1,.56.16c.57.31.9,1.18.9,3.58,0,2-.21,3.24-.54,3.68a1.15,1.15,0,0,1-.92.48v.12H5.1a3.86,3.86,0,0,0,3.82-4V7.66ZM3.47,10.3V0H0V.13C.65.25.93.49.93,1.49V10.3c0,1-.25,1.24-.91,1.37v.13H4v-.13c-.45-.11-.54-.7-.54-1.37m52,1.49V0H52V.13c.65.12.94.36.94,1.36V10.3c0,1-.25,1.24-.92,1.37v.12Zm-7.28-.12a1.31,1.31,0,0,1-.38.18V12A3.94,3.94,0,0,0,51.66,7.9s0-.05,0-.07,0,0,0-.07a3.94,3.94,0,0,0-3.83-4.1V3.8a1.31,1.31,0,0,1,.38.18c.51.32.85,1.19.85,3.65V8c0,2.46-.34,3.33-.85,3.65m-1.31,0c-.5-.32-.85-1.19-.85-3.65V7.63c0-2.46.35-3.33.85-3.65a1.36,1.36,0,0,1,.39-.18V3.66a3.94,3.94,0,0,0-3.83,4.1V7.9A3.94,3.94,0,0,0,47.29,12v-.14a1.36,1.36,0,0,1-.39-.18m-28.07-.43c-1.06,0-1.56-.64-1.55-1.8V3.84H13.81V4c.64.13.93.36.93,1.37V9.55A2.28,2.28,0,0,0,17.05,12a2.55,2.55,0,0,0,1.78-.63Zm.36-7.4V4c.41.12.48.7.48,1.27v6.56h2.54V3.84Zm-9.88,8v-.12c.66-.13.92-.34.92-1.37V1.49c0-1-.29-1.24-.94-1.36V0h3.47V11.79Z" />
			<path class="cls-1" d="M35.21,15.59a.39.39,0,0,1-.13.06l-.18,0-.19,0-.17.05a.27.27,0,0,0-.12.09.25.25,0,0,0,0,.16.23.23,0,0,0,0,.12l.07.07a.21.21,0,0,0,.11,0l.12,0a.73.73,0,0,0,.23,0,.48.48,0,0,0,.16-.09.38.38,0,0,0,.09-.13.27.27,0,0,0,0-.12Zm.45.86a.4.4,0,0,1-.2,0,.24.24,0,0,1-.17-.06.28.28,0,0,1-.06-.2.73.73,0,0,1-.27.2.87.87,0,0,1-.32.06.78.78,0,0,1-.22,0,.34.34,0,0,1-.17-.08.33.33,0,0,1-.12-.14.48.48,0,0,1-.05-.22.52.52,0,0,1,.05-.23.64.64,0,0,1,.13-.15.49.49,0,0,1,.18-.08l.21-.05.22,0a.57.57,0,0,0,.18,0,.23.23,0,0,0,.12-.06.16.16,0,0,0,0-.12.26.26,0,0,0,0-.14.2.2,0,0,0-.09-.09L35,15h-.13a.65.65,0,0,0-.29.07.28.28,0,0,0-.13.25h-.27a.53.53,0,0,1,.06-.26.44.44,0,0,1,.16-.17.55.55,0,0,1,.22-.1,1.12,1.12,0,0,1,.27,0l.22,0a.65.65,0,0,1,.21.06.47.47,0,0,1,.14.14.43.43,0,0,1,.06.24v.86a.53.53,0,0,0,0,.14.07.07,0,0,0,.07.05l.09,0Z" />
			<path class="cls-1" d="M36.34,14.78v.27h0a.58.58,0,0,1,.55-.31.68.68,0,0,1,.27,0,.57.57,0,0,1,.18.12.48.48,0,0,1,.09.19,1,1,0,0,1,0,.25v1.1h-.27V15.32a.31.31,0,0,0-.34-.34.67.67,0,0,0-.22,0,.91.91,0,0,0-.16.11.56.56,0,0,0-.09.17.66.66,0,0,0,0,.21v.94h-.27V14.78Z" />
			<rect class="cls-1" x="39.16" y="14.14" width="0.31" height="2.31" />
			<path class="cls-1" d="M41.23,16.19a.43.43,0,0,0,.32-.11.41.41,0,0,0,.11-.3.38.38,0,0,0,0-.19.43.43,0,0,0-.11-.12.76.76,0,0,0-.16-.06l-.19,0h-.7v.8Zm-.16-1.05a.56.56,0,0,0,.38-.1.34.34,0,0,0,.11-.27.37.37,0,0,0,0-.2.27.27,0,0,0-.1-.11l-.16-.05h-.8v.74Zm-.08-1h.33l.15,0a.29.29,0,0,1,.13.05.54.54,0,0,1,.19.18.56.56,0,0,1,.08.3.57.57,0,0,1-.09.32.56.56,0,0,1-.25.2h0a.51.51,0,0,1,.32.2.56.56,0,0,1,.12.36.74.74,0,0,1,0,.25.57.57,0,0,1-.13.21.71.71,0,0,1-.22.15.73.73,0,0,1-.3.05H40.15V14.14Z" />
			<polygon class="cls-1" points="42.96 14.14 43.69 16.09 44.42 14.14 44.84 14.14 44.84 16.45 44.55 16.45 44.55 14.53 44.54 14.53 43.82 16.45 43.55 16.45 42.83 14.53 42.83 14.53 42.83 16.45 42.53 16.45 42.53 14.14 42.96 14.14" />
			<path class="cls-1" d="M48,14.47a.74.74,0,0,0-.42-.12.75.75,0,0,0-.35.07.72.72,0,0,0-.25.21,1,1,0,0,0-.14.3,1.34,1.34,0,0,0,0,.35,1.58,1.58,0,0,0,0,.38A.92.92,0,0,0,47,16a.72.72,0,0,0,.25.21.8.8,0,0,0,.36.08.76.76,0,0,0,.27-.05.66.66,0,0,0,.2-.14.57.57,0,0,0,.13-.21.6.6,0,0,0,.06-.27h.31a1,1,0,0,1-.3.68.94.94,0,0,1-.7.25,1,1,0,0,1-.47-.1.83.83,0,0,1-.33-.25,1.07,1.07,0,0,1-.2-.38,1.51,1.51,0,0,1-.07-.48,1.49,1.49,0,0,1,.07-.47,1.22,1.22,0,0,1,.21-.39,1.1,1.1,0,0,1,.34-.26,1.21,1.21,0,0,1,.48-.09,1,1,0,0,1,.34.05.78.78,0,0,1,.29.14.93.93,0,0,1,.21.23,1.07,1.07,0,0,1,.11.33H48.2a.53.53,0,0,0-.23-.37" />
			<path class="cls-1" d="M49.27,15.89a.64.64,0,0,0,.11.2.66.66,0,0,0,.17.12.52.52,0,0,0,.4,0,.52.52,0,0,0,.17-.12.49.49,0,0,0,.11-.2.93.93,0,0,0,0-.54.43.43,0,0,0-.11-.2A.33.33,0,0,0,50,15a.43.43,0,0,0-.4,0,.38.38,0,0,0-.17.12.55.55,0,0,0-.11.2.93.93,0,0,0,0,.54M49,15.27a.78.78,0,0,1,.16-.28.67.67,0,0,1,.25-.18.78.78,0,0,1,.35-.07.75.75,0,0,1,.35.07.81.81,0,0,1,.26.18.76.76,0,0,1,.15.28,1,1,0,0,1,.05.35.93.93,0,0,1-.05.34.69.69,0,0,1-.15.28.68.68,0,0,1-.26.18.75.75,0,0,1-.35.07.78.78,0,0,1-.35-.07.58.58,0,0,1-.25-.18A.71.71,0,0,1,49,16a1.21,1.21,0,0,1-.05-.34,1.34,1.34,0,0,1,.05-.35" />
			<path class="cls-1" d="M51.31,14.78V15h0a.6.6,0,0,1,.54-.29.55.55,0,0,1,.28.07.37.37,0,0,1,.18.22.5.5,0,0,1,.22-.21.61.61,0,0,1,.3-.08.8.8,0,0,1,.23,0,.54.54,0,0,1,.17.08.44.44,0,0,1,.12.15.56.56,0,0,1,0,.23v1.22h-.28V15.36a.71.71,0,0,0,0-.15.26.26,0,0,0,0-.12A.21.21,0,0,0,53,15a.35.35,0,0,0-.16,0,.42.42,0,0,0-.32.12.41.41,0,0,0-.12.31v1h-.27V15.36a.61.61,0,0,0,0-.15.22.22,0,0,0,0-.12.24.24,0,0,0-.09-.08.38.38,0,0,0-.16,0,.39.39,0,0,0-.2,0,.33.33,0,0,0-.14.12.39.39,0,0,0-.08.14.3.3,0,0,0,0,.12v1h-.28V14.78Z" />
			<path class="cls-1" d="M55.25,15.37a.72.72,0,0,0-.09-.2A.55.55,0,0,0,55,15a.47.47,0,0,0-.46,0,.44.44,0,0,0-.16.14.67.67,0,0,0-.09.21.9.9,0,0,0,0,.46.67.67,0,0,0,.09.21.61.61,0,0,0,.17.14.54.54,0,0,0,.24.05A.6.6,0,0,0,55,16.2a.54.54,0,0,0,.15-.15.49.49,0,0,0,.08-.21,1,1,0,0,0,0-.24.91.91,0,0,0,0-.23m-1-.59V15h0a.39.39,0,0,1,.21-.21.83.83,0,0,1,.32-.06.74.74,0,0,1,.34.07.65.65,0,0,1,.24.19,1,1,0,0,1,.14.28,1.18,1.18,0,0,1,0,.68.74.74,0,0,1-.14.28.63.63,0,0,1-.24.18.7.7,0,0,1-.33.07h-.14l-.15-.05a.37.37,0,0,1-.14-.07.45.45,0,0,1-.11-.13h0v.86H54V14.78Z" />
			<path class="cls-1" d="M57.09,15.59a.39.39,0,0,1-.13.06l-.18,0-.18,0a.69.69,0,0,0-.17.05.27.27,0,0,0-.12.09.21.21,0,0,0-.05.16.24.24,0,0,0,0,.12.16.16,0,0,0,.07.07.18.18,0,0,0,.1,0l.12,0a.86.86,0,0,0,.24,0,.54.54,0,0,0,.15-.09.31.31,0,0,0,.1-.13.5.5,0,0,0,0-.12Zm.45.86a.37.37,0,0,1-.2,0,.25.25,0,0,1-.17-.06.28.28,0,0,1-.06-.2.7.7,0,0,1-.26.2.88.88,0,0,1-.33.06.71.71,0,0,1-.21,0,.37.37,0,0,1-.18-.08.33.33,0,0,1-.12-.14A.48.48,0,0,1,56,16a.41.41,0,0,1,.05-.23.44.44,0,0,1,.12-.15.71.71,0,0,1,.18-.08l.21-.05.22,0a.48.48,0,0,0,.18,0,.23.23,0,0,0,.12-.06.17.17,0,0,0,.05-.12.2.2,0,0,0,0-.14A.24.24,0,0,0,57,15l-.12,0h-.13a.66.66,0,0,0-.3.07.28.28,0,0,0-.12.25H56A.66.66,0,0,1,56.1,15a.5.5,0,0,1,.15-.17.62.62,0,0,1,.22-.1l.27,0,.23,0a.66.66,0,0,1,.2.06.38.38,0,0,1,.14.14.43.43,0,0,1,.06.24v.86a.53.53,0,0,0,0,.14s0,.05.08.05l.08,0Z" />
			<path class="cls-1" d="M58.22,14.78v.27h0a.58.58,0,0,1,.55-.31.68.68,0,0,1,.27,0,.41.41,0,0,1,.18.12.5.5,0,0,1,.1.19,1,1,0,0,1,0,.25v1.1h-.28V15.32a.35.35,0,0,0-.09-.25.33.33,0,0,0-.25-.09.72.72,0,0,0-.22,0,.58.58,0,0,0-.15.11.56.56,0,0,0-.09.17.46.46,0,0,0,0,.21v.94H58V14.78Z" />
			<path class="cls-1" d="M60.58,16.68a1,1,0,0,1-.1.21.45.45,0,0,1-.1.13.35.35,0,0,1-.13.08.39.39,0,0,1-.16,0H60l-.1,0v-.26l.09,0h.07a.24.24,0,0,0,.15,0,.31.31,0,0,0,.08-.11l.11-.29-.66-1.66h.31l.49,1.37h0L61,14.78h.29Z" />
		</g>
	</g>
</svg>
