<?xml version="1.0" encoding="utf-8"?>
<!-- Generator: Adobe Illustrator 22.0.1, SVG Export Plug-In . SVG Version: 6.00 Build 0)  -->
<svg version="1.1" id="Layer_1" xmlns="http://www.w3.org/2000/svg" xmlns:xlink="http://www.w3.org/1999/xlink" x="0px" y="0px"
	 viewBox="0 0 451 61" style="enable-background:new 0 0 451 61;" xml:space="preserve">
<style type="text/css">
	.st0{fill:grey;}
</style>
<title>Page 1</title>
<desc>Created with Sketch.</desc>
<g id="Page-1">
	<g>
		<path id="Fill-1" class="st0" d="M78.5,23.8h0.6l0.3,5.2h-0.8c-0.4-1.6-1-2.7-1.7-3.4c-0.7-0.7-1.5-1-2.4-1
			c-0.7,0-1.3,0.2-1.8,0.6c-0.5,0.4-1,1-1.3,1.9c-0.3,0.8-0.5,2-0.5,3.5c0,1.6,0.1,2.9,0.4,3.7c0.3,0.8,0.6,1.4,1.2,1.8
			c0.5,0.4,1.1,0.6,1.8,0.6c0.9,0,1.6-0.3,2.1-0.8c0.5-0.5,0.8-1.2,0.8-2v-1.2c0-0.2-0.1-0.4-0.2-0.5C77,32,76.8,32,76.6,32h-1.4
			v-0.8h6.3V32h-0.8c-0.3,0-0.5,0.1-0.6,0.2c-0.1,0.1-0.2,0.3-0.2,0.5v4.8h-0.7l-1.1-2.2c-0.5,0.8-1.1,1.3-1.7,1.7
			c-0.7,0.4-1.4,0.5-2.3,0.5c-1.2,0-2.3-0.3-3.2-0.8s-1.7-1.3-2.2-2.3c-0.5-1-0.8-2.2-0.8-3.5c0-2,0.6-3.7,1.9-5
			c1.2-1.3,2.8-1.9,4.6-1.9c0.7,0,1.3,0.1,1.8,0.3c0.5,0.2,1.1,0.5,1.7,1L78.5,23.8z"/>
		<path id="Fill-3" class="st0" d="M89.9,25v-0.8h6.7V25h-1.1c-0.3,0-0.5,0.1-0.7,0.2c-0.1,0.1-0.2,0.3-0.2,0.6v9.7
			c0,0.4,0.1,0.6,0.2,0.8c0.1,0.1,0.4,0.2,0.9,0.2h1.9c0.7,0,1.3-0.3,2-1c0.6-0.7,1.1-1.7,1.4-3.2h0.8l-0.3,5H89.9v-0.8H91
			c0.3,0,0.4-0.1,0.6-0.2c0.1-0.1,0.2-0.3,0.2-0.5v-9.9c0-0.2-0.1-0.4-0.2-0.5C91.5,25,91.2,25,90.9,25H89.9z"/>
		<path id="Fill-5" class="st0" d="M116.8,24.7c-0.7,0-1.3,0.2-1.8,0.6c-0.5,0.4-0.9,1-1.2,1.9c-0.3,0.9-0.5,2-0.5,3.5
			c0,1.6,0.1,2.7,0.4,3.6c0.3,0.8,0.7,1.4,1.2,1.8c0.5,0.4,1.2,0.6,1.9,0.6c1,0,1.9-0.4,2.5-1.3c0.6-0.9,0.9-2.5,0.9-4.7
			c0-1.6-0.1-2.7-0.4-3.5c-0.3-0.8-0.7-1.4-1.2-1.7C118.1,24.9,117.5,24.7,116.8,24.7 M116.8,23.8c1.2,0,2.4,0.3,3.4,0.9
			c1,0.6,1.8,1.4,2.4,2.4c0.6,1,0.9,2.2,0.9,3.5c0,2-0.6,3.6-1.9,4.9c-1.3,1.3-2.9,2-4.7,2c-1.3,0-2.4-0.3-3.4-0.9
			c-1-0.6-1.8-1.4-2.4-2.4c-0.6-1-0.9-2.2-0.9-3.5c0-2,0.6-3.6,1.9-4.9C113.4,24.5,114.9,23.8,116.8,23.8"/>
		<path id="Fill-7" class="st0" d="M136.9,30.9v4.7c0,0.2,0.1,0.4,0.2,0.6c0.1,0.1,0.2,0.2,0.4,0.2h1.7c0.8,0,1.5-0.2,1.9-0.7
			s0.7-1.1,0.7-2c0-0.9-0.3-1.6-0.8-2.1c-0.5-0.5-1.2-0.7-2.2-0.7H136.9z M136.9,30.1h1.5c1,0,1.7-0.2,2.2-0.6
			c0.4-0.4,0.6-1.1,0.6-2.1c0-0.8-0.2-1.4-0.6-1.8s-1.2-0.5-2.4-0.5c-0.6,0-0.9,0-1.1,0.1c-0.1,0.1-0.2,0.3-0.2,0.5V30.1z
			 M132.3,24.2h7.9c1.2,0,2.2,0.3,2.9,0.9c0.7,0.6,1.1,1.3,1.1,2.2c0,0.8-0.3,1.4-0.8,1.9c-0.6,0.5-1.4,0.9-2.5,1.2
			c1.5,0.2,2.5,0.7,3.2,1.2c0.6,0.6,0.9,1.3,0.9,2.1c0,0.8-0.2,1.4-0.7,2c-0.3,0.4-0.9,0.7-1.7,1c-0.8,0.3-1.7,0.4-2.8,0.4h-7.5
			v-0.8h1.2c0.2,0,0.4-0.1,0.5-0.2c0.1-0.2,0.2-0.4,0.2-0.6V25.5c0-0.2-0.1-0.3-0.2-0.4c-0.1-0.1-0.4-0.1-0.7-0.1h-1V24.2z"/>
		<path id="Fill-9" class="st0" d="M158.6,27.1l-2.1,5h4.1L158.6,27.1z M160.1,23.8l4.9,11.7c0.1,0.3,0.3,0.6,0.5,0.7
			c0.2,0.1,0.4,0.2,0.7,0.2h0.5v0.8h-6.1v-0.8h0.6c0.5,0,0.8,0,0.9-0.2c0.2-0.1,0.3-0.2,0.3-0.4c0-0.1,0-0.3-0.1-0.4l-1-2.4h-4.9
			l-0.5,1.1c-0.2,0.5-0.3,0.8-0.3,1c0,0.4,0.1,0.7,0.4,0.9c0.3,0.2,0.7,0.4,1.2,0.4h0.4v0.8h-4.9v-0.8h0.3c0.3,0,0.6-0.1,0.8-0.3
			c0.3-0.3,0.6-0.6,0.8-1.1l4.7-11.1H160.1z"/>
		<path id="Fill-11" class="st0" d="M174.3,25v-0.8h6.7V25h-1.1c-0.3,0-0.5,0.1-0.7,0.2c-0.1,0.1-0.2,0.3-0.2,0.6v9.7
			c0,0.4,0.1,0.6,0.2,0.8c0.1,0.1,0.4,0.2,0.9,0.2h1.9c0.7,0,1.3-0.3,2-1c0.6-0.7,1.1-1.7,1.4-3.2h0.8l-0.3,5h-11.4v-0.8h1.1
			c0.3,0,0.4-0.1,0.6-0.2c0.1-0.1,0.2-0.3,0.2-0.5v-9.9c0-0.2-0.1-0.4-0.2-0.5c-0.1-0.1-0.4-0.2-0.7-0.2H174.3z"/>
		<path id="Fill-13" class="st0" d="M211.8,30.1h1.1c1,0,1.7-0.2,2.3-0.7c0.4-0.4,0.6-1,0.6-1.9c0-0.8-0.2-1.4-0.6-1.8
			c-0.4-0.4-1.1-0.6-2.2-0.6c-0.6,0-0.9,0.1-1,0.2c-0.1,0.1-0.2,0.4-0.2,0.8V30.1z M207.2,24.2h6.8c1.1,0,2,0.1,2.7,0.4
			c0.7,0.3,1.2,0.7,1.6,1.2c0.3,0.5,0.5,1,0.5,1.6c0,1-0.4,1.7-1.3,2.3c-0.7,0.5-1.7,0.7-3,0.9c0.7,0.1,1.2,0.3,1.6,0.5
			c0.4,0.2,0.7,0.6,1,1.1c0.4,0.6,0.7,1.4,0.9,2.3c0.1,0.6,0.3,0.9,0.4,1.1c0.1,0.1,0.2,0.2,0.4,0.2c0.4,0,0.6-0.5,0.7-1.5h0.8
			c-0.1,1.1-0.3,1.9-0.7,2.3c-0.4,0.5-1,0.7-1.8,0.7c-0.6,0-1-0.1-1.3-0.3c-0.3-0.2-0.6-0.6-0.8-1c-0.1-0.3-0.3-0.8-0.4-1.8
			c-0.2-1.1-0.4-1.8-0.6-2.2c-0.2-0.4-0.4-0.7-0.7-0.8c-0.3-0.2-0.6-0.3-1-0.3h-1v4.8c0,0.2,0.1,0.4,0.2,0.5
			c0.2,0.1,0.4,0.2,0.6,0.2h1.2v0.8h-6.6v-0.8h1c0.3,0,0.5-0.1,0.6-0.2c0.1-0.1,0.2-0.3,0.2-0.6v-9.8c0-0.3-0.1-0.5-0.2-0.6
			c-0.1-0.1-0.3-0.2-0.5-0.2h-1.1V24.2z"/>
		<path id="Fill-15" class="st0" d="M228.7,24.2h6.7V25h-1.2c-0.3,0-0.4,0.1-0.6,0.2c-0.1,0.1-0.2,0.3-0.2,0.5v10.1
			c0,0.2,0.1,0.4,0.2,0.5c0.2,0.1,0.4,0.2,0.7,0.2h1.1v0.8h-6.7v-0.8h1c0.4,0,0.6-0.1,0.7-0.2c0.1-0.1,0.2-0.3,0.2-0.5v-10
			c0-0.2-0.1-0.4-0.2-0.5c-0.1-0.1-0.3-0.2-0.6-0.2h-1.2V24.2z"/>
		<path id="Fill-17" class="st0" d="M252.1,25.2l0.8-1.2h0.6l0.1,4.5h-0.8c-0.4-1.3-1-2.3-1.7-2.9c-0.8-0.6-1.6-1-2.5-1
			c-0.8,0-1.4,0.2-1.9,0.6c-0.5,0.4-0.7,0.9-0.7,1.5c0,0.4,0.1,0.7,0.3,1c0.2,0.3,0.5,0.5,0.9,0.8c0.4,0.2,1.2,0.4,2.3,0.6
			c1.3,0.3,2.1,0.5,2.6,0.7c0.8,0.3,1.3,0.8,1.7,1.3c0.4,0.6,0.6,1.2,0.6,2c0,1.2-0.4,2.2-1.2,2.9c-1,0.9-2.2,1.3-3.7,1.3
			c-1.4,0-2.6-0.5-3.7-1.4l-1,1.3H244v-4.8h0.8c0.8,2.7,2.3,4.1,4.7,4.1c1,0,1.7-0.2,2.2-0.7c0.5-0.4,0.8-1,0.8-1.7
			c0-0.5-0.1-0.9-0.4-1.2c-0.2-0.3-0.6-0.6-1.1-0.8c-0.3-0.1-0.9-0.3-2-0.5c-1.4-0.3-2.5-0.6-3.1-1c-0.6-0.3-1.1-0.8-1.3-1.2
			c-0.3-0.5-0.4-1.1-0.4-1.8c0-1.2,0.4-2.1,1.2-2.9c0.8-0.7,1.9-1.1,3.2-1.1C249.9,23.8,251.1,24.3,252.1,25.2"/>
		<path id="Fill-19" class="st0" d="M263.2,24.2h6.4V25h-1.1c-0.3,0-0.6,0.1-0.7,0.2c-0.1,0.1-0.2,0.3-0.2,0.5v5.7l4.3-4.9
			c0.2-0.3,0.4-0.6,0.4-0.8c0-0.2-0.1-0.4-0.2-0.5c-0.2-0.1-0.5-0.2-0.9-0.2H271v-0.8h5.4V25H276c-0.5,0-0.9,0.1-1.3,0.4
			c-0.6,0.4-1.2,0.9-1.8,1.6l-1.7,1.9l3.9,6.6c0.2,0.3,0.4,0.5,0.6,0.6c0.3,0.2,0.6,0.2,0.9,0.2h0.5v0.8h-6.4v-0.8h0.6
			c0.4,0,0.6,0,0.8-0.1c0.2-0.1,0.2-0.2,0.2-0.3c0-0.1,0-0.1-0.1-0.2l-2.8-4.8l-1.7,1.9v2.8c0,0.2,0.1,0.4,0.2,0.5
			c0.1,0.1,0.3,0.2,0.5,0.2h1.2v0.8h-6.4v-0.8h0.9c0.3,0,0.5-0.1,0.6-0.2c0.1-0.1,0.2-0.3,0.2-0.5V25.6c0-0.2-0.1-0.4-0.2-0.5
			c-0.1-0.1-0.3-0.2-0.6-0.2h-0.9V24.2z"/>
		<path id="Fill-21" class="st0" d="M302.6,27.1l-2.1,5h4.1L302.6,27.1z M304,23.8l4.9,11.7c0.1,0.3,0.3,0.6,0.5,0.7
			c0.2,0.1,0.4,0.2,0.7,0.2h0.5v0.8h-6.1v-0.8h0.6c0.5,0,0.8,0,0.9-0.2c0.2-0.1,0.3-0.2,0.3-0.4c0-0.1,0-0.3-0.1-0.4l-1-2.4h-4.9
			l-0.5,1.1c-0.2,0.5-0.3,0.8-0.3,1c0,0.4,0.1,0.7,0.4,0.9c0.3,0.2,0.7,0.4,1.2,0.4h0.4v0.8h-4.9v-0.8h0.3c0.3,0,0.6-0.1,0.8-0.3
			c0.3-0.3,0.6-0.6,0.8-1.1l4.7-11.1H304z"/>
		<path id="Fill-23" class="st0" d="M324.6,36.4c0.8,0,1.5-0.2,2.1-0.6s1.1-1,1.3-1.7c0.3-0.7,0.4-1.8,0.4-3.3
			c0-1.5-0.2-2.7-0.5-3.6c-0.3-0.8-0.8-1.4-1.3-1.8c-0.6-0.3-1.4-0.5-2.5-0.5c-0.6,0-1,0-1.1,0.1c-0.1,0.1-0.2,0.3-0.2,0.5v9.8
			c0,0.3,0.1,0.5,0.2,0.6c0.1,0.1,0.3,0.2,0.6,0.2H324.6z M318.2,24.2h7c1.3,0,2.4,0.3,3.3,0.8c1,0.5,1.7,1.3,2.3,2.3
			c0.5,1,0.8,2.1,0.8,3.4c0,1.3-0.2,2.4-0.7,3.4c-0.5,1-1.2,1.7-2.2,2.3c-1,0.6-2.1,0.9-3.2,0.9h-7.3v-0.8h1.1
			c0.3,0,0.5-0.1,0.6-0.2c0.1-0.1,0.2-0.3,0.2-0.6v-9.8c0-0.3-0.1-0.5-0.2-0.6c-0.1-0.1-0.4-0.2-0.7-0.2h-1V24.2z"/>
		<path id="Fill-25" class="st0" d="M339.5,24.2h6.4V25h-0.7c-0.5,0-0.8,0-0.9,0.1c-0.2,0.1-0.2,0.2-0.2,0.4c0,0.1,0.1,0.4,0.2,0.7
			l3.3,7.9l2.7-6.7c0.2-0.5,0.3-0.9,0.3-1.3c0-0.4-0.1-0.6-0.3-0.8c-0.2-0.2-0.5-0.3-1-0.3h-0.6v-0.8h5V25h-0.4
			c-0.3,0-0.6,0.1-0.9,0.3c-0.3,0.2-0.5,0.6-0.7,1.2l-4.4,10.9h-1L341.3,26c-0.2-0.4-0.3-0.7-0.5-0.8c-0.2-0.1-0.5-0.2-1-0.2h-0.3
			V24.2z"/>
		<path id="Fill-27" class="st0" d="M361.2,24.2h6.7V25h-1.2c-0.3,0-0.4,0.1-0.6,0.2c-0.1,0.1-0.2,0.3-0.2,0.5v10.1
			c0,0.2,0.1,0.4,0.2,0.5c0.2,0.1,0.4,0.2,0.7,0.2h1.1v0.8h-6.7v-0.8h1c0.4,0,0.6-0.1,0.7-0.2c0.1-0.1,0.2-0.3,0.2-0.5v-10
			c0-0.2-0.1-0.4-0.2-0.5c-0.1-0.1-0.3-0.2-0.6-0.2h-1.2V24.2z"/>
		<path id="Fill-29" class="st0" d="M384.7,25.2l0.8-1.2h0.6l0.1,4.5h-0.8c-0.4-1.3-1-2.3-1.7-2.9c-0.8-0.6-1.6-1-2.5-1
			c-0.8,0-1.4,0.2-1.9,0.6c-0.5,0.4-0.7,0.9-0.7,1.5c0,0.4,0.1,0.7,0.3,1c0.2,0.3,0.5,0.5,0.9,0.8c0.4,0.2,1.2,0.4,2.3,0.6
			c1.3,0.3,2.1,0.5,2.6,0.7c0.8,0.3,1.3,0.8,1.7,1.3c0.4,0.6,0.6,1.2,0.6,2c0,1.2-0.4,2.2-1.2,2.9c-1,0.9-2.2,1.3-3.7,1.3
			c-1.4,0-2.6-0.5-3.7-1.4l-1,1.3h-0.7v-4.8h0.8c0.8,2.7,2.3,4.1,4.7,4.1c1,0,1.7-0.2,2.2-0.7c0.5-0.4,0.8-1,0.8-1.7
			c0-0.5-0.1-0.9-0.4-1.2c-0.2-0.3-0.6-0.6-1.1-0.8c-0.3-0.1-0.9-0.3-2-0.5c-1.4-0.3-2.5-0.6-3.1-1c-0.6-0.3-1.1-0.8-1.3-1.2
			c-0.3-0.5-0.4-1.1-0.4-1.8c0-1.2,0.4-2.1,1.2-2.9c0.8-0.7,1.9-1.1,3.2-1.1C382.4,23.8,383.6,24.3,384.7,25.2"/>
		<path id="Fill-31" class="st0" d="M402.5,24.7c-0.7,0-1.3,0.2-1.8,0.6c-0.5,0.4-0.9,1-1.2,1.9s-0.5,2-0.5,3.5
			c0,1.6,0.1,2.7,0.4,3.6c0.3,0.8,0.7,1.4,1.2,1.8c0.5,0.4,1.2,0.6,1.9,0.6c1,0,1.9-0.4,2.5-1.3c0.6-0.9,0.9-2.5,0.9-4.7
			c0-1.6-0.1-2.7-0.4-3.5c-0.3-0.8-0.7-1.4-1.2-1.7C403.8,24.9,403.2,24.7,402.5,24.7 M402.4,23.8c1.2,0,2.4,0.3,3.4,0.9
			c1,0.6,1.8,1.4,2.4,2.4c0.6,1,0.9,2.2,0.9,3.5c0,2-0.6,3.6-1.9,4.9c-1.3,1.3-2.9,2-4.7,2c-1.3,0-2.4-0.3-3.4-0.9
			c-1-0.6-1.8-1.4-2.4-2.4c-0.6-1-0.9-2.2-0.9-3.5c0-2,0.6-3.6,1.9-4.9C399,24.5,400.5,23.8,402.4,23.8"/>
		<path id="Fill-33" class="st0" d="M422.8,30.1h1.1c1,0,1.7-0.2,2.3-0.7c0.4-0.4,0.6-1,0.6-1.9c0-0.8-0.2-1.4-0.6-1.8
			c-0.4-0.4-1.1-0.6-2.2-0.6c-0.6,0-0.9,0.1-1,0.2c-0.1,0.1-0.2,0.4-0.2,0.8V30.1z M418.2,24.2h6.8c1.1,0,2,0.1,2.7,0.4
			c0.7,0.3,1.2,0.7,1.6,1.2c0.3,0.5,0.5,1,0.5,1.6c0,1-0.4,1.7-1.3,2.3c-0.6,0.5-1.7,0.7-3,0.9c0.7,0.1,1.2,0.3,1.6,0.5
			c0.4,0.2,0.7,0.6,1,1.1c0.4,0.6,0.7,1.4,0.9,2.3c0.1,0.6,0.3,0.9,0.4,1.1c0.1,0.1,0.2,0.2,0.4,0.2c0.4,0,0.6-0.5,0.7-1.5h0.8
			c-0.1,1.1-0.3,1.9-0.7,2.3c-0.4,0.5-1,0.7-1.8,0.7c-0.6,0-1-0.1-1.3-0.3c-0.3-0.2-0.6-0.6-0.8-1c-0.1-0.3-0.3-0.8-0.4-1.8
			c-0.2-1.1-0.4-1.8-0.6-2.2c-0.2-0.4-0.4-0.7-0.7-0.8c-0.3-0.2-0.6-0.3-1-0.3h-1v4.8c0,0.2,0.1,0.4,0.2,0.5
			c0.2,0.1,0.4,0.2,0.6,0.2h1.2v0.8h-6.6v-0.8h1c0.3,0,0.5-0.1,0.6-0.2c0.1-0.1,0.2-0.3,0.2-0.6v-9.8c0-0.3-0.1-0.5-0.2-0.6
			c-0.1-0.1-0.3-0.2-0.5-0.2h-1.1V24.2z"/>
		<path id="Fill-35" class="st0" d="M447.9,25.2l0.8-1.2h0.6l0.1,4.5h-0.8c-0.4-1.3-1-2.3-1.7-2.9c-0.8-0.6-1.6-1-2.5-1
			c-0.8,0-1.4,0.2-1.9,0.6c-0.5,0.4-0.7,0.9-0.7,1.5c0,0.4,0.1,0.7,0.3,1c0.2,0.3,0.5,0.5,0.9,0.8c0.4,0.2,1.2,0.4,2.3,0.6
			c1.3,0.3,2.1,0.5,2.6,0.7c0.8,0.3,1.3,0.8,1.7,1.3c0.4,0.6,0.6,1.2,0.6,2c0,1.2-0.4,2.2-1.2,2.9c-1,0.9-2.2,1.3-3.7,1.3
			c-1.4,0-2.6-0.5-3.7-1.4l-1,1.3h-0.7v-4.8h0.8c0.8,2.7,2.3,4.1,4.7,4.1c1,0,1.7-0.2,2.2-0.7c0.5-0.4,0.8-1,0.8-1.7
			c0-0.5-0.1-0.9-0.4-1.2c-0.2-0.3-0.6-0.6-1.1-0.8c-0.3-0.1-0.9-0.3-2-0.5c-1.4-0.3-2.5-0.6-3.1-1c-0.6-0.3-1.1-0.8-1.3-1.2
			c-0.3-0.5-0.4-1.1-0.4-1.8c0-1.2,0.4-2.1,1.2-2.9c0.8-0.7,1.9-1.1,3.2-1.1C445.7,23.8,446.9,24.3,447.9,25.2"/>
		<path id="Fill-38" class="st0" d="M39.1,39.3c0.9-1.9,1.5-3.9,1.8-6.1l-0.3,0.1l7.8-1.2l-0.5,0.1c-0.5,3.9-2.2,7.4-4.7,10.1
			C41.9,41.1,40.6,40.1,39.1,39.3L39.1,39.3z M32.1,47.9c2.9-2.1,5.1-4.8,6.7-7.9c1.4,0.8,2.7,1.7,3.8,2.8
			C39.8,45.5,36.2,47.4,32.1,47.9L32.1,47.9z M31.8,48.1l1.5-10c1.7,0.3,3.3,0.8,4.8,1.6c-1.4,2.8-3.5,5.4-6.1,7.3L31.8,48.1z
			 M40.1,33.4c-0.3,1.9-0.9,3.8-1.7,5.6c-1.6-0.8-3.3-1.3-5-1.6l0,0.3l0.5-3.2L40.1,33.4z M29.9,30.2l-3.1,3.3L5.2,30.2L29.9,30.2
			l-3.1-2.8l3.2-22L29.9,30.2l3-2.8l0,0.1l21.9,2.8L29.9,30.2l3,3.3l-0.1,0L30,54.9L29.9,30.2z M27.9,46.9c-2.6-2-4.7-4.5-6.1-7.3
			c1.5-0.7,3.1-1.2,4.7-1.5l1.5,9.6L27.9,46.9z M17.3,42.8c1.2-1.1,2.5-2.1,3.9-2.8c1.6,3.1,3.8,5.8,6.7,7.9
			C23.8,47.4,20.1,45.5,17.3,42.8L17.3,42.8z M19.8,33.4l6.1,1l0.5,3.3l-0.1-0.3c-1.7,0.3-3.4,0.9-4.9,1.6
			C20.7,37.2,20.2,35.3,19.8,33.4L19.8,33.4z M12,32.1l7.3,1.2l-0.2,0c0.3,2.1,0.9,4.1,1.8,6c-1.5,0.8-2.8,1.8-4.1,3
			C14.2,39.5,12.5,36,12,32.1L12,32.1z M16.9,17.3c1.2,1.2,2.6,2.2,4.1,2.9c-1.1,2.3-1.8,4.7-2,7.2l-7,1
			C12.2,24.2,14.1,20.3,16.9,17.3L16.9,17.3z M28,11.8c-2.9,2.1-5.1,4.7-6.7,7.7c-1.4-0.8-2.7-1.7-3.8-2.8
			C20.2,14.1,23.9,12.3,28,11.8L28,11.8z M39.1,20.4c1.5-0.8,2.8-1.7,4.1-2.9c2.7,2.9,4.5,6.8,4.8,11l-7-1l0.1,0
			C40.8,25,40.1,22.6,39.1,20.4L39.1,20.4z M32,11.8c4.1,0.5,7.8,2.3,10.6,5.1c-1.2,1.1-2.5,2-3.9,2.8C37.1,16.6,34.8,13.9,32,11.8
			L32,11.8z M49.5,31.9l10.6-1.7l-11.5-1.6l0.9,0.1C49,18.9,41.2,11,31.5,10.2l0.4,2.5c2.6,2,4.7,4.5,6.2,7.3
			c-1.6,0.7-3.2,1.3-4.9,1.5l0.1,0.8c1.8-0.3,3.5-0.8,5.2-1.6c1,2.1,1.6,4.3,1.9,6.7l-6.4-0.9L30,0l-4,26.5l-6.3,0.9
			c0.3-2.4,0.9-4.7,1.9-6.8c1.6,0.8,3.2,1.3,5,1.6l0.1-0.8c-1.7-0.3-3.3-0.8-4.8-1.6c1.4-2.8,3.5-5.2,6.1-7.2l0.4-2.5
			c-9.8,0.7-17.6,8.7-18.1,18.5L0,30.2L11.3,32l-0.9-0.1c0.9,9.4,8.5,16.9,18,17.6L30,60.2l1.6-10.7C41,48.7,48.6,41.3,49.5,31.9
			L49.5,31.9z"/>
	</g>
</g>
</svg>
