<svg xmlns="http://www.w3.org/2000/svg" width="210.396" height="23.018" viewBox="0 0 210.396 23.018">
<style type="text/css">
	.st0{fill:grey;}
</style>
  <g id="Group_61" data-name="Group 61" transform="translate(-0.001 0)">
    <path class="st0" id="Path_24" data-name="Path 24" d="M6075.759,1023.965a8.192,8.192,0,0,0,4.234,2.748,17.712,17.712,0,0,0,5.617.743,16.982,16.982,0,0,0,5.08-.673c2.881-.925,4.387-2.647,4.6-5.262a4.555,4.555,0,0,0-2.164-4.621,10.435,10.435,0,0,0-3.242-1.324c-1.55-.351-3.138-.67-4.673-.978-.826-.166-1.651-.332-2.476-.5l-.221-.046a14.371,14.371,0,0,1-3.307-.969,2.881,2.881,0,0,1-1.6-1.826,3.027,3.027,0,0,1,.442-2.486,4.573,4.573,0,0,1,2.78-1.782,14.066,14.066,0,0,1,2.3-.41,13.766,13.766,0,0,1,5.133.329,5.535,5.535,0,0,1,4.2,4.113,13.26,13.26,0,0,1,.25,1.421c.013.1.026.2.04.294h2.226a8.548,8.548,0,0,0-1.116-4.225,8,8,0,0,0-5.34-3.654,17,17,0,0,0-6.041-.267,11.364,11.364,0,0,0-4.078,1.179,5.5,5.5,0,0,0-2.68,2.752c-.89,2.144-.582,5.017,2.2,6.263a16.724,16.724,0,0,0,3.1,1.046c1.314.3,2.664.561,3.968.812.883.17,1.794.347,2.688.534a14.011,14.011,0,0,1,3.68,1.192,3.04,3.04,0,0,1,1.694,2.152,3.465,3.465,0,0,1-.8,2.84,6.091,6.091,0,0,1-3.444,1.817,17.884,17.884,0,0,1-4.886.306,11,11,0,0,1-3.814-.788,5.241,5.241,0,0,1-3.354-3.92c-.063-.319-.1-.639-.132-.95l0-.045h-2.266c.011.178.021.35.04.521A6.922,6.922,0,0,0,6075.759,1023.965Z" transform="translate(-6024.326 -1004.439)"/>
    <path class="st0" id="Path_25" data-name="Path 25" d="M6186.365,1023.965a8.187,8.187,0,0,0,4.234,2.748,17.712,17.712,0,0,0,5.617.743,16.98,16.98,0,0,0,5.079-.673c2.881-.925,4.386-2.647,4.6-5.262a4.554,4.554,0,0,0-2.165-4.621,10.417,10.417,0,0,0-3.24-1.324c-1.551-.351-3.14-.67-4.674-.978-.825-.166-1.651-.332-2.476-.5l-.221-.046a14.349,14.349,0,0,1-3.306-.969,2.882,2.882,0,0,1-1.6-1.826,3.03,3.03,0,0,1,.442-2.486,4.57,4.57,0,0,1,2.78-1.782,14.066,14.066,0,0,1,2.3-.41,13.77,13.77,0,0,1,5.133.329,5.537,5.537,0,0,1,4.2,4.113,13.006,13.006,0,0,1,.247,1.421c.016.1.028.2.042.294h2.226a8.558,8.558,0,0,0-1.116-4.225,8,8,0,0,0-5.341-3.654,16.994,16.994,0,0,0-6.041-.267,11.359,11.359,0,0,0-4.077,1.179,5.5,5.5,0,0,0-2.68,2.752c-.89,2.144-.582,5.017,2.2,6.263a16.724,16.724,0,0,0,3.1,1.046c1.315.3,2.664.561,3.969.812.88.17,1.793.347,2.687.534a14.031,14.031,0,0,1,3.68,1.192,3.043,3.043,0,0,1,1.694,2.152,3.463,3.463,0,0,1-.8,2.84,6.084,6.084,0,0,1-3.443,1.817,17.887,17.887,0,0,1-4.887.306,11,11,0,0,1-3.814-.788,5.241,5.241,0,0,1-3.354-3.92c-.065-.319-.1-.639-.131-.95l0-.045h-2.267c.012.178.023.35.04.521A6.912,6.912,0,0,0,6186.365,1023.965Z" transform="translate(-6021.372 -1004.439)"/>
    <path class="st0" id="Path_26" data-name="Path 26" d="M6037.693,1007.158h9.874v-2.194h-21.94v2.194h9.873v17.553h-9.873v2.194h21.94v-2.194h-9.874Z" transform="translate(-6025.626 -1004.425)"/>
    <path class="st0" id="Path_27" data-name="Path 27" d="M6069.965,1004.964V1023.7l-17.6-18.736h-2.192V1026.9h2.194v-18.736l17.6,18.736h2.194v-21.941Z" transform="translate(-6024.971 -1004.425)"/>
    <path class="st0" id="Path_28" data-name="Path 28" d="M6175.236,1004.963l0,0v0h-4.39L6162.1,1026.9h2.372l2.66-6.684h11.817l2.659,6.684h2.373ZM6168,1018.027l4.326-10.87h1.418l4.326,10.87Z" transform="translate(-6021.981 -1004.425)"/>
    <path class="st0" id="Path_29" data-name="Path 29" d="M6096.13,1004.963v2.194H6106V1026.9h2.2v-19.747h9.872v-2.194Z" transform="translate(-6023.745 -1004.425)"/>
    <path class="st0" id="Path_30" data-name="Path 30" d="M6137,1026.9l-8.675-21.942,0,0v0h-4.358l-8.676,21.942h2.354l2.64-6.684h11.726l2.639,6.684Zm-15.852-8.878,4.292-10.87h1.406l4.294,10.87Z" transform="translate(-6023.232 -1004.425)"/>
    <path class="st0" id="Path_31" data-name="Path 31" d="M6159.811,1017.031a6.026,6.026,0,0,0-1.481-1.293,6.1,6.1,0,0,0,.923-.9,6.033,6.033,0,0,0-4.629-9.873h-15.375V1026.9h15.908a6.033,6.033,0,0,0,4.654-9.874Zm-18.367-9.874H6154.6a3.844,3.844,0,0,1,.248,7.68c-.08.005-.159.008-.237.008l-13.166-.008Zm13.961,17.554h-13.961v-7.68h13.713a3.844,3.844,0,0,1,.248,7.68Z" transform="translate(-6022.592 -1004.425)"/>
    <path class="st0" id="Path_32" data-name="Path 32" d="M6211.376,1024.71v-7.679h17.553v-2.194h-17.553v-7.679h18.65v-2.194h-20.844V1026.9h21.941v-2.194Z" transform="translate(-6020.725 -1004.425)"/>
  </g>
</svg>
