<?xml version="1.0" encoding="utf-8"?>
<!-- Generator: Adobe Illustrator 19.1.0, SVG Export Plug-In . SVG Version: 6.00 Build 0)  -->
<svg version="1.1" id="Layer_1" xmlns="http://www.w3.org/2000/svg" xmlns:xlink="http://www.w3.org/1999/xlink" x="0px" y="0px"
	 viewBox="-50 -5.6 97.9 37.6" style="enable-background:new -50 -5.6 97.9 37.6;" xml:space="preserve">
<style type="text/css">
	.st0{fill:#FFFFFF;}
</style>
<g>
	<g>
		<g>
			<path class="st0" d="M-31.4,3.4c-1.2,0-2.2,1-2.2,2.2s1,2.2,2.2,2.2c1.2,0,2.2-1,2.2-2.2S-30.1,3.4-31.4,3.4z"/>
		</g>
	</g>
	<g>
		<g>
			<path class="st0" d="M-47.8,15.4c-1.2,0-2.2,1-2.2,2.3s1,2.2,2.2,2.2s2.2-1,2.2-2.2S-46.6,15.4-47.8,15.4z"/>
		</g>
	</g>
	<g>
		<g>
			<path class="st0" d="M-13.6,15.4c-1.2,0-2.2,1-2.2,2.2s1,2.2,2.2,2.2s2.2-1,2.2-2.2S-12.4,15.4-13.6,15.4z"/>
		</g>
	</g>
	<g>
		<g>
			<path class="st0" d="M30.8,15.4c-1.2,0-2.2,1-2.2,2.2s1,2.2,2.2,2.2s2.2-1,2.2-2.2S32,15.4,30.8,15.4z"/>
		</g>
	</g>
	<g>
		<g>
			<path class="st0" d="M-6.2,3.4c-1.2,0-2.2,1-2.2,2.2s1,2.2,2.2,2.2S-4,6.8-4,5.6S-4.9,3.4-6.2,3.4z"/>
		</g>
	</g>
	<g>
		<g>
			<path class="st0" d="M45.7,3.4c-1.2,0-2.2,1-2.2,2.2s1,2.2,2.2,2.2s2.2-1,2.2-2.2S46.9,3.4,45.7,3.4z"/>
		</g>
	</g>
	<g>
		<g>
			<path class="st0" d="M-29.1,8.4C-32,9-34,11.4-34,14.2s2.1,5.2,4.9,5.8V8.4z"/>
		</g>
	</g>
	<g>
		<g>
			<path class="st0" d="M-11.6,3.4c-2.9,0.6-4.9,3-4.9,5.8s2.1,5.2,4.9,5.8V3.4z"/>
		</g>
	</g>
	<g>
		<g>
			<path class="st0" d="M-8.4,8.4v11.5c2.9-0.6,4.9-3,4.9-5.8S-5.5,9-8.4,8.4z"/>
		</g>
	</g>
	<g>
		<g>
			<path class="st0" d="M24.5,3.4c-3.6,1.2-6,4.5-6,8.3s2.5,7.1,6,8.3V3.4z"/>
		</g>
	</g>
	<g>
		<g>
			<path class="st0" d="M9.1,3.4v16.5c3.6-1.2,6-4.5,6-8.3S12.7,4.5,9.1,3.4z"/>
		</g>
	</g>
	<g>
		<g>
			<path class="st0" d="M5.9,3.4c-3.6,1.3-6,5.1-6,9.4V32c3.6-1.3,6-5.1,6-9.4V3.4z"/>
		</g>
	</g>
	<g>
		<g>
			<path class="st0" d="M-25.9,19.9h6v-7.1c0-4.3-2.5-8.1-6-9.4V19.9z"/>
		</g>
	</g>
	<g>
		<g>
			<path class="st0" d="M37.1,19.9h6v-7.1c0-4.3-2.5-8.1-6-9.4V19.9z"/>
		</g>
	</g>
	<g>
		<g>
			<path class="st0" d="M-37.3-5.6c-3.6,1.3-6,5.1-6,9.4v16.1c3.6-1.3,6-5.1,6-9.4V-5.6z"/>
		</g>
	</g>
	<path class="st0" d="M27.7,13.4v-10c3.6,1.2,6,4.5,6,8.3v1.7H27.7z"/>
</g>
<path class="st0" d="M45.2,19.4v-0.9h0.3c0.1,0,0.1,0,0.1,0c0,0,0.1,0,0.1,0.1c0,0,0.1,0.1,0.1,0.1c0.1,0.1,0.1,0.2,0.2,0.3l0.3,0.4
	h0.3l-0.3-0.5c-0.1-0.1-0.1-0.2-0.2-0.3c0,0-0.1-0.1-0.2-0.1c0.2,0,0.3-0.1,0.4-0.2c0.1-0.1,0.1-0.2,0.1-0.4c0-0.1,0-0.2-0.1-0.3
	c-0.1-0.1-0.1-0.2-0.2-0.2c-0.1,0-0.2-0.1-0.4-0.1h-0.9v2H45.2z M45.2,17.6h0.6c0.1,0,0.3,0,0.3,0.1c0.1,0.1,0.1,0.1,0.1,0.2
	c0,0.1,0,0.1-0.1,0.2c0,0.1-0.1,0.1-0.2,0.1c-0.1,0-0.2,0-0.3,0h-0.6V17.6z"/>
<path class="st0" d="M44.1,18.4c0-0.9,0.7-1.6,1.6-1.6c0.9,0,1.6,0.7,1.6,1.6c0,0.9-0.7,1.6-1.6,1.6C44.8,20,44.1,19.3,44.1,18.4
	 M44.3,18.4c0,0.8,0.6,1.4,1.4,1.4c0.8,0,1.4-0.6,1.4-1.4c0-0.8-0.6-1.4-1.4-1.4C44.9,17,44.3,17.6,44.3,18.4"/>
</svg>
