<svg id="Design" xmlns="http://www.w3.org/2000/svg" viewBox="0 0 1990 442">
	<defs>
		<style>
			.cls-1{fill:grey;}
		</style>
	</defs>
	<title>
        Lumiata Logo
	</title>
	<circle class="cls-1" cx="1047.74" cy="38.81" r="37.5" />
	<rect class="cls-1" x="1020.19" y="115.99" width="55.1" height="320.02" rx="4" ry="4" />
	<path class="cls-1" d="M1393.4,120v37.14A162.23,162.23,0,0,0,1280,111c-.81,0-1.61,0-2.42,0-1,0-1.95,0-2.93,0-42.77,0-81.75,15.45-112.23,45.94s-45.94,70.35-45.94,118.49c0,.1,0,.19,0,.28s0,.16,0,.23c0,.72,0,1.44,0,2.15s0,1.38,0,2.06c0,0,0,.09,0,.14,1,46,16.43,84.18,45.88,113.62a153.81,153.81,0,0,0,86.68,44,162.59,162.59,0,0,0,144.31-43.18V432a4,4,0,0,0,4,4h47a4,4,0,0,0,4-4V120a4,4,0,0,0-4-4h-47A4,4,0,0,0,1393.4,120Zm1.35,157.81c0,32.62-11.47,59.92-34.1,81.16-20.95,19.67-46.53,29.26-78.21,29.33S1223.91,378,1203,357.8c-21.4-20.64-32.24-48-32.24-81.19s10.85-60.55,32.24-81.19,48.23-31.11,79.76-31.11c29.67,0,56.09,10.68,78.53,31.75S1394.75,243.94,1394.75,277.82Z" />
	<path class="cls-1" d="M1659.68,115.93h-62.83V13.66a4,4,0,0,0-4-4h-47a4,4,0,0,0-4,4V115.93h-61.8a4,4,0,0,0-4,4v42.42a4,4,0,0,0,4,4h61.8V432a4,4,0,0,0,4,4h47a4,4,0,0,0,4-4V166.34h62.83a4,4,0,0,0,4-4V119.93A4,4,0,0,0,1659.68,115.93Z" />
	<path class="cls-1" d="M1932.72,120v37.14A162.23,162.23,0,0,0,1819.31,111c-.81,0-1.61,0-2.42,0-1,0-1.95,0-2.93,0-42.77,0-81.75,15.45-112.23,45.94s-45.94,70.35-45.94,118.49c0,.1,0,.19,0,.28s0,.16,0,.23c0,.72,0,1.44,0,2.15s0,1.38,0,2.06c0,0,0,.09,0,.14,1,46,16.43,84.18,45.88,113.62a153.81,153.81,0,0,0,86.68,44,162.59,162.59,0,0,0,144.31-43.18V432a4,4,0,0,0,4,4h47a4,4,0,0,0,4-4V120a4,4,0,0,0-4-4h-47A4,4,0,0,0,1932.72,120Zm1.35,157.81c0,32.62-11.47,59.92-34.1,81.16-20.95,19.67-46.53,29.26-78.21,29.33s-58.54-10.33-79.44-30.5c-21.4-20.64-32.24-48-32.24-81.19s10.85-60.55,32.24-81.19,48.23-31.11,79.76-31.11c29.67,0,56.09,10.68,78.53,31.75S1934.07,243.94,1934.07,277.82Z" />
	<path class="cls-1" d="M842.33,111c-45.11,0-85.62,18.25-111.92,53.51h0c-29.75-40.86-70.25-53.51-100-53.51-35.44,0-68.72,12.69-94.67,41.53V120a4,4,0,0,0-4-4H485.18a4,4,0,0,0-4,4V432a4,4,0,0,0,4,4H532.7a4,4,0,0,0,4-4V284.81c0-28.35,2.51-63,18.28-84.67,13.7-18.83,37.21-33.48,63.2-34.28,30.5-.93,47.52,7.37,62.78,26.86,13.22,16.88,17.87,38.79,17.87,65.64V432a4,4,0,0,0,4,4h46.83a4,4,0,0,0,4-4V259.49c0-60.38,34-93.62,85-93.62,22.11,0,43.22,7.11,56.7,21.2,15.69,16.4,19.45,37.48,19.45,72.42V432a4,4,0,0,0,4,4h46.83a4,4,0,0,0,4-4V259.47c0-34.08-1.93-59.74-15.59-85.61C934.18,136.31,895,111,842.33,111Z" />
	<path class="cls-1" d="M57,354V6a4,4,0,0,0-4-4H6.28a4,4,0,0,0-4,4V362.63c0,23.09,3.75,43.09,15.59,54.93,13,13,28,18.83,52.91,18.83,18.9,0,35.79-2.13,43.69-4.23a4,4,0,0,0,3-3.84c0-9,.18-33.72.25-44.42A4,4,0,0,0,113,380a146.08,146.08,0,0,1-23.41,1.89C72.9,381.91,57,380,57,354Z" />
	<path class="cls-1" d="M374.15,285.32q-.06,1.51-.13,3l0,.3c-1.67,31.75-9.71,52.35-27.5,70.44-9.17,9.33-24.5,18.08-38.19,23.08a104,104,0,0,1-34,5.63c-4.58,0-9.3-.19-14-.58-18-2.06-35.41-9.63-46-19.37-17.69-16.2-22.5-38-22.5-72.49V119.93a4,4,0,0,0-4-4H141.18a4,4,0,0,0-4,4V294.25c0,42.14,1.67,64.14,16.33,92.14,19.37,37,60.33,54.44,109.89,54.44,1.68,0,3.33,0,5-.06h0c48.25,0,85.13-17.83,107.94-45V432a4,4,0,0,0,4,4h45.78a4,4,0,0,0,4-4V119.93a4,4,0,0,0-4-4H379.17a4,4,0,0,0-4,4C375.17,143,375.13,259.57,374.15,285.32Z" />
</svg>
