<?xml version="1.0" encoding="utf-8"?>
<!-- Generator: Adobe Illustrator 21.1.0, SVG Export Plug-In . SVG Version: 6.00 Build 0)  -->
<svg version="1.1" id="Layer_1" xmlns="http://www.w3.org/2000/svg" xmlns:xlink="http://www.w3.org/1999/xlink" x="0px" y="0px"
	 viewBox="0 0 399.9 58.4" style="enable-background:new 0 0 399.9 58.4;" xml:space="preserve">
<style type="text/css">
	.st0{fill:grey;}
</style>
<g>
	<path class="st0" d="M105.9,0C89.8,0,76.7,13.1,76.7,29.2s13.1,29.2,29.2,29.2s29.2-13.1,29.2-29.2S122,0,105.9,0z M124.8,29.2
		c0,10.4-8.5,18.9-18.9,18.9S87,39.6,87,29.2s8.5-18.9,18.9-18.9S124.8,18.8,124.8,29.2z"/>
	<path class="st0" d="M45.4,1.2H0.6C0.3,1.2,0,1.4,0,1.8v8.9c0,0.3,0.3,0.6,0.6,0.6h17.3v45.3c0,0.3,0.3,0.6,0.6,0.6h8.9
		c0.3,0,0.6-0.3,0.6-0.6V11.3h17.3c0.3,0,0.6-0.3,0.6-0.6V1.8C46,1.4,45.7,1.2,45.4,1.2z"/>
	<path class="st0" d="M399.3,47.1H378V1.8c0-0.3-0.3-0.6-0.6-0.6h-8.9c-0.3,0-0.6,0.3-0.6,0.6v54.9c0,0.3,0.3,0.6,0.6,0.6h30.8
		c0.3,0,0.6-0.3,0.6-0.6v-8.9C399.9,47.4,399.6,47.1,399.3,47.1z"/>
	<path class="st0" d="M326,56.4L302.2,1.5c-0.1-0.2-0.3-0.4-0.5-0.4h-9.9c-0.2,0-0.4,0.1-0.5,0.4l-23.7,54.9c-0.1,0.2-0.1,0.4,0,0.6
		c0.1,0.2,0.3,0.3,0.5,0.3c0,0,0,0,0,0l9.3-0.1c0.2,0,0.4-0.1,0.5-0.4L296.7,14l18.9,42.8c0.1,0.2,0.3,0.4,0.5,0.4l9.3,0.1
		c0,0,0,0,0,0c0.2,0,0.4-0.1,0.5-0.3C326,56.8,326,56.6,326,56.4z"/>
	<path class="st0" d="M225.1,1.2h-8.9c-0.3,0-0.6,0.3-0.6,0.6v38.1L185.1,1.5c-0.1-0.2-0.3-0.3-0.5-0.3c0,0,0,0,0,0c0,0,0,0,0,0
		h-8.9c-0.3,0-0.6,0.3-0.6,0.6v54.9c0,0.3,0.3,0.6,0.6,0.6h8.9c0.3,0,0.6-0.3,0.6-0.6v-38L215.7,57c0,0,0,0,0,0c0,0,0,0,0,0
		c0,0,0,0,0,0c0,0,0,0,0.1,0c0,0,0,0,0,0c0,0,0,0,0.1,0c0,0,0,0,0,0c0,0,0,0,0.1,0c0,0,0,0,0,0c0,0,0,0,0,0h8.9
		c0.3,0,0.6-0.3,0.6-0.6V1.8C225.7,1.4,225.4,1.2,225.1,1.2z"/>
</g>
</svg>
