<svg id="logo-svg" width="87px" height="30px" viewBox="0 0 87 30" version="1.1" xmlns="http://www.w3.org/2000/svg" xmlns:xlink="http://www.w3.org/1999/xlink">
    <defs>
    <style>.cls-1 { fill: grey;}</style>
    </defs>
    <g id="Symbols" stroke="none" stroke-width="1" fill="none" fill-rule="evenodd">
        <g id="NAV-Light" transform="translate(-30.000000, -15.000000)" fill="#F4F4F4">
            <g id="NAV" transform="translate(30.000000, 0.000000)">
                <g id="WGI-Logo" transform="translate(0.000000, 15.000000)">
                    <polygon class="cls-1" id="Fill-7" points="81.1089184 8.15846939 86.0717755 10.8811224 84.9871837 12.6673469 80.0243265 9.94469388 80.0243265 15.3893878 77.8551429 15.3893878 77.8551429 9.94469388 72.8840204 12.6673469 71.7994286 10.8811224 76.7622857 8.15846939 71.7994286 5.43612245 72.8840204 3.64959184 77.8551429 6.37193878 77.8551429 0.927244898 80.0243265 0.927244898 80.0243265 6.37193878 84.9871837 3.64959184 86.0717755 5.43612245"></polygon>
                    <polygon class="cls-1" id="Fill-5" points="49.1717449 0.927214286 67.2495 0.927214286 67.2495 4.06068367 60.0182755 4.06068367 60.0182755 25.9952755 67.2495 25.9952755 67.2495 29.1284388 49.1717449 29.1284388 49.1717449 25.9952755 56.4026633 25.9952755 56.4026633 4.06068367 49.1717449 4.06068367"></polygon>
                    <path class="cls-1" d="M33.2632653,15.6303673 L45.7971429,15.6303673 L45.7971429,29.1285306 L42.6636735,29.1285306 L42.6636735,25.7538367 L42.3783673,25.7538367 C41.9173469,26.939449 41.1039796,27.8948571 39.9388776,28.621898 C38.7728571,29.3489388 37.4173469,29.7126122 35.8723469,29.7126122 C32.8086735,29.7126122 30.4031633,28.7299592 28.654898,26.7640408 C26.9060204,24.7984286 26.0320408,21.9306735 26.0320408,18.1601633 L26.0320408,11.8589388 C26.0320408,8.19679592 26.912449,5.35536735 28.675102,3.33557143 C30.4371429,1.31577551 32.890102,0.305877551 36.0352041,0.305877551 C37.6613265,0.305877551 39.0982653,0.568836735 40.3454082,1.09383673 C41.5919388,1.61883673 42.6358163,2.34587755 43.4764286,3.27495918 C44.3164286,4.20404082 44.9534694,5.2947551 45.387551,6.54679592 C45.8210204,7.79914286 46.0380612,9.13904082 46.0380612,10.5661837 L46.0380612,11.0507755 L42.4227551,11.0507755 L42.4227551,10.5637347 C42.4227551,9.64383673 42.2954082,8.75057143 42.0410204,7.8842449 C41.7863265,7.01853061 41.3981633,6.25414286 40.8759184,5.59077551 C40.3539796,4.92802041 39.6841837,4.39995918 38.867449,4.0075102 C38.0504082,3.61536735 37.0662245,3.41883673 35.914898,3.41883673 C33.7454082,3.41883673 32.1183673,4.2175102 31.0337755,5.8142449 C29.9491837,7.41097959 29.4064286,9.50822449 29.4064286,12.1062857 L29.4064286,17.952 C29.4064286,20.739551 29.9491837,22.8842449 31.0337755,24.3863878 C32.1183673,25.8885306 33.7717347,26.639449 35.995102,26.639449 C38.0038776,26.639449 39.5767347,25.9898571 40.7155102,24.6909796 C41.8536735,23.3917959 42.4227551,21.5789388 42.4227551,19.2508776 L42.4227551,18.7638367 L33.2632653,18.7638367 L33.2632653,15.6303673 Z" id="Fill-2"></path>
                    <polygon class="cls-1" id="Fill-1" points="20.7514286 0.927336735 18.0517347 27.6824388 17.5680612 27.6824388 15.03 0.927336735 8.82459184 0.927336735 6.28591837 27.6824388 5.80255102 27.6824388 3.10285714 0.927336735 0 0.927336735 2.86010204 29.1285612 9.06642857 29.1285612 11.6856122 2.37345918 12.1689796 2.37345918 14.7881633 29.1285612 20.9941837 29.1285612 23.8545918 0.927336735"></polygon>
                </g>
            </g>
        </g>
    </g>
</svg>