<?xml version="1.0" encoding="utf-8"?>
<!-- Generator: Adobe Illustrator 16.0.0, SVG Export Plug-In . SVG Version: 6.00 Build 0)  -->
<!DOCTYPE svg PUBLIC "-//W3C//DTD SVG 1.1//EN" "http://www.w3.org/Graphics/SVG/1.1/DTD/svg11.dtd">
<svg version="1.1" id="Layer_1" xmlns="http://www.w3.org/2000/svg" xmlns:xlink="http://www.w3.org/1999/xlink" x="0px" y="0px"
	 width="331.016px" height="260.962px" viewBox="0 0 331.016 260.962" enable-background="new 0 0 331.016 260.962"
	 xml:space="preserve">
<ellipse transform="matrix(0.9057 -0.424 0.424 0.9057 -41.5117 39.9239)" fill="none" stroke="#5EC29D" stroke-width="5" stroke-miterlimit="10" cx="68.966" cy="113.252" rx="26.313" ry="36.762"/>
<ellipse transform="matrix(-0.9057 -0.424 0.424 -0.9057 430.2369 322.2264)" fill="none" stroke="#5EC29D" stroke-width="5" stroke-miterlimit="10" cx="250.964" cy="113.252" rx="23.819" ry="33.277"/>
<ellipse transform="matrix(0.9647 0.2632 -0.2632 0.9647 23.7558 -48.7951)" fill="none" stroke="#5EC29D" stroke-width="5" stroke-miterlimit="10" cx="193.966" cy="64.251" rx="28.134" ry="39.305"/>
<ellipse transform="matrix(-0.9647 0.2632 -0.2632 -0.9647 252.6143 94.6557)" fill="none" stroke="#5EC29D" stroke-width="5" stroke-miterlimit="10" cx="119.966" cy="64.251" rx="28.134" ry="39.305"/>
<path fill="none" stroke="#5EC29D" stroke-width="5" stroke-miterlimit="10" d="M225.39,194.303
	c0,45.747-29.034,45.942-64.849,45.942c-35.815,0-64.848-0.195-64.848-45.942c0-45.747,29.034-82.832,64.849-82.832
	C196.356,111.471,225.39,148.557,225.39,194.303z"/>
</svg>
